<?xml version="1.0" encoding="UTF-8" standalone="no"?>
<!DOCTYPE svg PUBLIC "-//W3C//DTD SVG 1.1//EN" "http://www.w3.org/Graphics/SVG/1.1/DTD/svg11.dtd">
<svg width="100%" height="100%" viewBox="0 0 500 500" version="1.1" xmlns="http://www.w3.org/2000/svg" xmlns:xlink="http://www.w3.org/1999/xlink" xml:space="preserve" xmlns:serif="http://www.serif.com/" style="fill-rule:evenodd;clip-rule:evenodd;stroke-linejoin:round;stroke-miterlimit:2;">
    <g transform="matrix(1.33558,0,0,1.33558,-95.4692,-112.265)">
        <g transform="matrix(1.4264,0,0,1.4264,42.7292,-175.108)">
            <circle cx="81.942" cy="331.812" r="23.497" style="fill:url(#_Linear1);"/>
        </g>
        <g transform="matrix(1,0,0,1,8.01237,30.5344)">
            <path d="M142.432,220.41C144.308,215.563 146.501,210.874 149.011,206.341C158.946,188.398 172.664,174.458 190.163,164.522C207.662,154.586 227.237,149.618 248.888,149.618C269.649,149.618 288.26,154.512 304.721,164.3C321.182,174.087 334.158,187.73 343.649,205.229L343.649,53.523L365.893,53.523L365.893,383.629L344.094,383.629L344.094,328.908C334.899,347 321.998,360.94 305.388,370.727C288.779,380.515 269.946,385.409 248.888,385.409C227.237,385.409 207.662,380.367 190.163,370.283C172.664,360.198 158.946,346.259 149.011,328.463C146.576,324.103 144.44,319.592 142.603,314.929C145.659,315.527 148.818,315.84 152.05,315.84C157.14,315.84 162.048,315.064 166.66,313.624C167.407,315.181 168.198,316.717 169.03,318.231C177.187,333.06 188.309,344.627 202.397,352.932C216.485,361.236 232.427,365.389 250.222,365.389C268.018,365.389 283.96,361.236 298.048,352.932C312.136,344.627 323.258,333.06 331.414,318.231C339.571,303.401 343.649,286.495 343.649,267.513C343.649,248.532 339.571,231.626 331.414,216.796C323.258,201.967 312.136,190.4 298.048,182.095C283.96,173.791 268.018,169.638 250.222,169.638C232.427,169.638 216.485,173.791 202.397,182.095C188.309,190.4 177.187,201.967 169.03,216.796C168.154,218.389 167.326,220.006 166.544,221.645C161.965,220.229 157.097,219.466 152.05,219.466C148.756,219.466 145.539,219.791 142.432,220.41Z" style="fill:url(#_Linear2);fill-rule:nonzero;"/>
        </g>
    </g>
    <defs>
        <linearGradient id="_Linear1" x1="0" y1="0" x2="1" y2="0" gradientUnits="userSpaceOnUse" gradientTransform="matrix(36.7927,31.8517,-31.8517,36.7927,58.4447,319.436)"><stop offset="0" style="stop-color:rgb(253,1,163);stop-opacity:1"/><stop offset="1" style="stop-color:rgb(6,183,154);stop-opacity:1"/></linearGradient>
        <linearGradient id="_Linear2" x1="0" y1="0" x2="1" y2="0" gradientUnits="userSpaceOnUse" gradientTransform="matrix(223.462,0,0,331.886,142.432,219.466)"><stop offset="0" style="stop-color:rgb(5,184,154);stop-opacity:1"/><stop offset="1" style="stop-color:rgb(255,0,163);stop-opacity:1"/></linearGradient>
    </defs>
</svg>
